<?xml version="1.0" encoding="utf-8"?>
<!-- Generator: Adobe Illustrator 24.3.0, SVG Export Plug-In . SVG Version: 6.00 Build 0)  -->
<svg version="1.1" id="Layer_1" xmlns="http://www.w3.org/2000/svg" xmlns:xlink="http://www.w3.org/1999/xlink" x="0px" y="0px"
	 viewBox="0 0 533.8 385.6" style="enable-background:new 0 0 533.8 385.6;" xml:space="preserve">
<path d="M520.2,106.2c-1.1-4.9-2.5-9.6-4.3-14.1C495,34.7,433.9-1,372.5,10.7c-37.7,7.2-65,35-90.6,61.6
	c-26.2,27.1-52.4,54.7-78.4,82.2c-19.7,20.8-41.4,43.2-72.6,39.5c-8.3-0.9-15.9-3.3-22.6-7c-19-10.1-31.8-30-31.8-52.9
	c0-33,26.9-59.9,59.9-59.9c1.3,0,2.7,0,4,0.2c1.6,0,3.4,0.2,5.1,0.4c18.8,2.5,30.3,13,43.3,25.5c1.8,1.8,3.6,3.3,5.8,4.7
	c4,2.5,8.3,4.2,13,4.7c8.7,0.9,17-1.6,24.7-7.8c7.8-6.1,12.3-13.7,13.4-22.4c3.8-30.2-32.5-51.3-55.8-61.2
	C156.6,3.8,117.4,3.5,84,18.3c-9.4,4.2-18.1,9.6-26.2,15.9c-27.1,21.7-42.6,50.4-46.8,86c-2.3,21.1-0.2,40.6,6.1,58.7
	c4.5,12.6,11.2,24.6,20,35.8C74.4,261.7,144.8,274,197,246.9V263v15.5v65.7c0,9.9,3.1,18.2,9.2,24.6s14.3,9.6,24.2,9.6
	c9.9,0,18.1-3.3,24.4-9.6c6.3-6.3,9.6-14.4,9.6-24.6v-65.7v-73.1v-21.1c4.7-4.9,9.2-9.9,13.9-14.8v36.5v10.8v61.8v65.7
	c0,9.9,3.1,18.2,9.2,24.6c6.1,6.3,14.3,9.6,24.2,9.6s18.1-3.3,24.4-9.6s9.6-14.4,9.6-24.6v-65.7v-8.8v-15.5
	c42.1,17.3,93,12.5,130-17.3C514.1,205.9,531.6,154.1,520.2,106.2z M402.7,193.3c-33,0-59.9-26.7-59.9-59.9
	c0-33,26.9-59.9,59.9-59.9s59.9,26.9,59.9,59.9C462.6,166.4,435.7,193.3,402.7,193.3z"/>
</svg>
