<?xml version="1.0" encoding="utf-8"?>
<!-- Generator: Adobe Illustrator 24.3.0, SVG Export Plug-In . SVG Version: 6.00 Build 0)  -->
<svg version="1.1" id="Layer_1" xmlns="http://www.w3.org/2000/svg" xmlns:xlink="http://www.w3.org/1999/xlink" x="0px" y="0px"
	 viewBox="0 0 533.8 385.6" style="enable-background:new 0 0 533.8 385.6;" xml:space="preserve">
<style type="text/css">
	.st0{fill:#010101;}
</style>
<g>
	<path class="st0" d="M141.4,266.1c9.4,0,17.1-3.1,23.1-9.1s9.1-13.7,9.1-23.1c0-9.4-3.1-17.1-9.1-23c-6-5.8-13.7-8.7-23.1-8.7
		c-15.8,0-29.1-5.7-40.3-16.8s-16.6-24.9-16.6-40.6s5.5-29.3,16.6-40.5s24.5-16.6,40.3-16.6s29.3,5.5,40.5,16.6
		c11.1,11.1,16.8,24.5,16.8,40.3V330c0,9.4,2.9,17.3,8.7,23.3s13.5,9.1,23,9.1s17.1-3.1,23.1-9.1s9.1-13.7,9.1-23.3V144.4
		c0-34.1-11.7-62.9-35-86.1c-23.3-23.3-52.1-34.8-86.2-34.8S78.7,35.2,55.3,58.3s-34.8,51.9-34.8,86.2s11.7,62.9,34.8,86.4
		S107.3,266.1,141.4,266.1z"/>
	<path class="st0" d="M308.2,362.3c9.4,0,17.1-3.1,23.1-9.1s9.1-13.7,9.1-23.3V144.4c0-15.8,5.5-29.3,16.6-40.3s24.5-16.6,40.3-16.6
		s29.3,5.5,40.5,16.6c11.1,11.1,16.8,24.5,16.8,40.5s-5.7,29.5-16.8,40.6c-11.1,11.3-24.7,17-40.5,17c-9.4,0-17.1,2.9-23,8.7
		c-5.8,5.8-8.7,13.5-8.7,23c0,9.4,2.9,17.1,8.7,23.1c5.8,6,13.5,9.1,23,9.1c34.1,0,62.9-11.7,86.2-35.1s35.1-52.3,35.1-86.4
		S507,81.7,483.5,58.3c-23.3-23.3-52.1-35-86.2-35S334.6,35,311.3,58.2c-23.1,23.3-34.8,51.9-34.8,86.1v185.5
		c0,9.4,2.9,17.3,8.7,23.3C291,359.2,298.6,362.3,308.2,362.3z"/>
</g>
</svg>
