<?xml version="1.0" encoding="utf-8"?>
<!-- Generator: Adobe Illustrator 24.3.0, SVG Export Plug-In . SVG Version: 6.00 Build 0)  -->
<svg version="1.1" id="Layer_1" xmlns="http://www.w3.org/2000/svg" xmlns:xlink="http://www.w3.org/1999/xlink" x="0px" y="0px"
	 viewBox="0 0 533.8 385.6" style="enable-background:new 0 0 533.8 385.6;" xml:space="preserve">
<style type="text/css">
	.st0{fill:none;}
	.st1{fill:#010101;}
	.st2{fill:#FFFFFF;}
</style>
<path class="st0" d="M338.4,173.3c-1-2.4-1.6-4.9-2.3-7.5c1.8,7.6,5.2,15,10.1,21.1v-0.2C342.8,182.9,340.2,178.3,338.4,173.3z"/>
<path class="st0" d="M355.5,196.2c-1.1-1-2.3-2-3.4-2.9C353.1,194.3,354.2,195.2,355.5,196.2z"/>
<path class="st0" d="M362.7,201.1c-1.5-0.8-2.8-1.6-4.1-2.6C359.9,199.5,361.4,200.3,362.7,201.1z"/>
<path class="st0" d="M346.1,121.1v0.5c0.3-0.5,0.7-0.8,1-1.3C346.7,120.6,346.4,120.8,346.1,121.1z"/>
<path class="st1" d="M232.4,235.6c-9.9,9.2-21.3,16.4-33.4,22v11.6v66.4c0,9.5,2.9,17.3,8.8,23.5c5.9,6.1,13.7,9.2,23.2,9.2
	c9.5,0,17.3-3.1,23.4-9.2s9.2-13.8,9.2-23.5v-66.3v-66.6c-3.1,3.3-6.1,6.6-9,9.9C247.6,220.2,240.5,228.1,232.4,235.6z"/>
<path class="st1" d="M508.4,107.7c-1-4.7-2.4-9.2-4.2-13.5c-12.3-33.4-38.6-59-70.4-71.6c-20.8-8.1-43.8-10.9-66.8-6.4
	c-7.3,1.4-14.2,3.6-20.8,6.4c-25.9,11.2-46.5,32.3-66.3,52.6c-25.1,25.9-50.2,52.4-75.1,78.7c-18.5,19.4-38.7,40.5-67.6,38.1
	c-1.2,0-2.4,0.2-3.6,0.2c-31.7,0-57.4-25.8-57.4-57.4c0-41,42-64.5,79.2-55.4C169.9,82.8,180.3,92,191,102c1.7,1.7,3.5,3.1,5.5,4.5
	c3.8,2.4,8,4,12.5,4.3c8.3,0.9,16.3-1.6,23.7-7.6c7.4-6.1,11.8-13.1,12.8-21.4c3.6-28.9-31.1-49.1-53.5-58.6
	c-0.3-0.2-0.9-0.3-1.2-0.5c-31.3-12.8-67.5-13.3-98.6,0c-0.5,0.2-1.2,0.5-1.7,0.7c-9,4-17.3,9.2-25.1,15.2
	c-25.9,20.8-40.8,48.3-44.8,82.3c-2.2,20.1-0.2,38.9,5.9,56.2c4.3,12.1,10.7,23.5,19.2,34.2c35.6,45.1,103.1,56.9,153.1,31
	c8.6-4.5,16.8-10,24-16.8c11.6-10.6,21.4-22.8,32.2-34.2c2.8-2.9,5.5-5.9,8.3-8.8c4.5-4.7,8.8-9.5,13.3-14.2v34.9v10.4v55.7v3.3v63
	c0,9.5,2.9,17.3,8.8,23.5c5.9,6.1,13.7,9.2,23.2,9.2c9.5,0,17.3-3.1,23.4-9.2c6.1-6.1,9.2-13.8,9.2-23.5v-63v-3.3v-5.2v-15
	c40.5,16.6,89.1,11.9,124.4-16.4C502.5,203.2,519.3,153.4,508.4,107.7z M402.7,192.2c-2.1,0.5-4,0.9-6.1,1.2
	c-37,4.8-72.1-27-66.8-64.9c3.1-22.3,20.4-41.9,41.7-49.1c5.5-1.9,11.4-2.9,17.3-2.9c19.9,0,37.5,10.2,47.7,25.6
	c7.3,9.5,11.6,21.4,11.6,34.2C448.1,163.1,428.3,185.9,402.7,192.2z"/>
<path class="st1" d="M358.6,198.5c-1.1-0.8-2.1-1.5-3.3-2.3C356.5,197,357.5,197.8,358.6,198.5z"/>
<path class="st1" d="M346.1,187.1v0.8c1.8,1.6,3.7,3.4,5.7,5c0.2,0.2,0.2,0.2,0.3,0.3c-0.2-0.2-0.2-0.2-0.3-0.3
	C349.7,191.2,347.9,189.2,346.1,187.1z"/>
<path class="st2" d="M346.1,121.6c-0.2,0.3-0.3,0.7-0.7,0.8C345.8,122.2,345.9,121.9,346.1,121.6L346.1,121.6z"/>
</svg>
