<?xml version="1.0" encoding="utf-8"?>
<!-- Generator: Adobe Illustrator 24.3.0, SVG Export Plug-In . SVG Version: 6.00 Build 0)  -->
<svg version="1.1" id="Layer_1" xmlns="http://www.w3.org/2000/svg" xmlns:xlink="http://www.w3.org/1999/xlink" x="0px" y="0px"
	 viewBox="0 0 533.8 385.6" style="enable-background:new 0 0 533.8 385.6;" xml:space="preserve">
<style type="text/css">
	.st0{fill:#010101;}
</style>
<g>
	<path class="st0" d="M283.4,227.8l-0.4-0.4c-0.4-0.4-0.5-0.7-0.9-1.1c-1.1-1.2-1.9-2.6-2.6-3.9c-0.2-0.2-0.2-0.2-0.2-0.4v120.4
		c0,9.6,3,17.5,8.9,23.8c6,6.1,13.9,9.3,23.5,9.3c0,0,0,0,0.2,0c9.6,0,17.5-3.2,23.7-9.3s9.3-14,9.3-23.8v-71.9
		C320.6,262.4,299.4,247.6,283.4,227.8z"/>
	<path class="st0" d="M265.7,206.1c-3.5,3.7-7.2,7.7-10.7,11.7c-7,7.9-14.2,16-22.4,23.5c-9.1,8.4-19.6,15.4-30.9,20.9
		c-0.4,0.2-0.9,0.4-1.2,0.5v0.2v79.8c0,9.6,3,17.5,8.9,23.8c6,6.1,13.9,9.3,23.5,9.3c9.6,0,17.5-3.2,23.7-9.3
		c6.1-6.1,9.3-14,9.3-23.8V205.9C265.9,205.9,265.7,205.9,265.7,206.1z"/>
	<path class="st0" d="M512.4,111.8c-1.1-4.7-2.5-9.3-4.2-13.7C487.8,42.3,428.6,7.6,369,19c-36.6,7-63.1,34-88,59.8
		c-25.6,26.3-50.8,53.1-76.1,79.8c-1.2,1.2-2.3,2.5-3.5,3.7c-0.4,0.4-0.5,0.7-0.9,0.9c-17.9,18.6-38,37-65.9,33.8
		c-16.1-1.8-29.1-8.9-39.1-21.6c-4.2-5.3-7.4-10.9-9.5-16.8c-3-8.1-3.9-16.8-2.8-26.1c0,0,0,0,0-0.2c1.8-16,8.9-29.1,21.6-39.1
		c12.1-9.8,28.4-14.2,44-12.1c18.2,2.5,29.5,12.6,42.1,24.5c1.8,1.8,3.5,3.2,5.6,4.6c3.9,2.5,8.1,4,12.6,4.4
		c8.4,0.9,16.5-1.6,24-7.7c7.5-6,11.9-13.3,13-21.7c3.7-29.3-31.6-49.8-54.2-59.4C159.3,11.8,121.4,11.5,89,25.8
		c-9.1,4-17.5,9.3-25.4,15.4c-26.3,21-41.4,48.9-45.4,83.5c-2.3,20.3-0.2,39.4,6,57c4.4,12.3,10.9,23.8,19.5,34.7
		c36.6,46.5,106.2,58,156.9,30.3c8.1-4.4,15.6-9.6,22.6-16.1c11.7-10.7,21.7-23.1,32.6-34.7c3.5-3.7,6.8-7.4,10.3-11
		c4.6-4.7,8.9-9.6,13.5-14.4c2.8-3,5.8-6.1,8.6-9.1c15.3-16.3,30.5-32.6,46.1-48.4c20-20.5,48-37.3,77.3-27
		c19.1,6.8,34,24.2,37.7,44.2c6.3,34.5-21.4,67.5-56.3,68.7c-15.4,0.5-30.5-5.4-42.3-15.3c-1.9-1.8-3.9-3.3-5.8-5.1
		c-9.8-8.9-18.9-17.2-34.4-12.1c-12.1,4-22.6,16-23.8,28.8c-0.7,7.9,1.6,15.4,7,22.6c0.2,0.2,0.4,0.5,0.5,0.7c0,0,0,0,0.2,0.2
		c13.5,17,31.2,29.3,50.5,37c40.5,16,88.9,10.9,124.3-17.5C506.2,208.5,523.2,158,512.4,111.8z"/>
</g>
</svg>
